<svg width="35" height="35" viewBox="0 0 35 35" fill="none" xmlns="http://www.w3.org/2000/svg">
<path fill-rule="evenodd" clip-rule="evenodd" d="M2.41203 6.23584C1.45834 8.10757 1.45834 10.5578 1.45834 15.4583V19.5416C1.45834 24.442 1.45834 26.8923 2.41203 28.7639C3.25092 30.4104 4.58949 31.749 6.23592 32.5878C8.10765 33.5416 10.5579 33.5416 15.4583 33.5416H19.5417C24.4421 33.5416 26.8924 33.5416 28.764 32.5878C30.4105 31.749 31.7491 30.4104 32.5879 28.7639C33.5417 26.8923 33.5417 24.442 33.5417 19.5416V15.4583C33.5417 10.5578 33.5417 8.10757 32.5879 6.23584C31.7491 4.58941 30.4105 3.25084 28.764 2.41194C26.8924 1.45825 24.4421 1.45825 19.5417 1.45825H15.4583C10.5579 1.45825 8.10765 1.45825 6.23592 2.41194C4.58949 3.25084 3.25092 4.58941 2.41203 6.23584ZM19.5417 4.37492H15.4583C12.96 4.37492 11.2616 4.37719 9.94887 4.48444C8.67015 4.58891 8.01623 4.77828 7.56006 5.01071C6.46245 5.56998 5.57006 6.46236 5.01079 7.55998C4.77836 8.01614 4.589 8.67006 4.48452 9.94879C4.37728 11.2615 4.375 12.9599 4.375 15.4583V19.5416C4.375 22.04 4.37728 23.7382 4.48452 25.051C4.589 26.3298 4.77836 26.9838 5.01079 27.4399C5.57006 28.5375 6.46245 29.4298 7.56006 29.9891C8.01623 30.2215 8.67015 30.411 9.94887 30.5154C11.2616 30.6226 12.96 30.6249 15.4583 30.6249H19.5417C22.0401 30.6249 23.7383 30.6226 25.0511 30.5154C26.3299 30.411 26.9838 30.2215 27.44 29.9891C28.5375 29.4298 29.4299 28.5375 29.9892 27.4399C30.2216 26.9838 30.4111 26.3298 30.5155 25.051C30.6227 23.7382 30.625 22.04 30.625 19.5416V15.4583C30.625 12.9599 30.6227 11.2615 30.5155 9.94879C30.4111 8.67006 30.2216 8.01614 29.9892 7.55998C29.4299 6.46236 28.5375 5.56998 27.44 5.01071C26.9838 4.77828 26.3299 4.58891 25.0511 4.48444C23.7383 4.37719 22.0401 4.37492 19.5417 4.37492Z" fill="#0F0F0F"/>
</svg>
