<svg width="43" height="43" viewBox="0 0 43 43" fill="none" xmlns="http://www.w3.org/2000/svg">
<path fill-rule="evenodd" clip-rule="evenodd" d="M33.3791 9.62105C37.997 14.239 37.997 21.7262 33.3791 26.3442C28.7611 30.9622 21.2738 30.9622 16.6561 26.3442C12.0381 21.7262 12.0381 14.239 16.6561 9.62105C21.2738 5.00311 28.7611 5.00311 33.3791 9.62105ZM19.6966 23.3036C22.6352 26.2423 27.3998 26.2423 30.3385 23.3036C33.2772 20.3649 33.2772 15.6003 30.3385 12.6616C27.3998 9.72292 22.6352 9.72292 19.6966 12.6616C16.7578 15.6003 16.7578 20.3649 19.6966 23.3036Z" fill="black"/>
<path d="M18.9364 28.6244C20.1958 27.3649 20.1958 25.3231 18.9364 24.0636C17.6769 22.8042 15.6351 22.8042 14.3756 24.0636L6.77426 31.6649C5.51479 32.9244 5.51479 34.9665 6.77426 36.2257C8.03352 37.4852 10.0756 37.4852 11.3351 36.2257L18.9364 28.6244Z" fill="black"/>
</svg>
