<svg width="35" height="35" viewBox="0 0 35 35" fill="none" xmlns="http://www.w3.org/2000/svg">
<path d="M18.2175 1.12549C20.008 1.09814 21.7853 1.11236 23.5616 1.09814C23.6206 3.31955 24.5219 5.31893 25.9558 6.79986L25.9536 6.79768C27.4969 8.18783 29.505 9.08908 31.7187 9.24221L31.7494 9.24439V14.7525C29.6581 14.7 27.6916 14.2177 25.9186 13.3886L26.0083 13.4258C25.1508 13.0135 24.4256 12.5902 23.7366 12.1177L23.7934 12.1549C23.7803 16.146 23.8066 20.1371 23.7661 24.1139C23.6534 26.1406 22.9797 27.9891 21.8991 29.5324L21.9209 29.4985C20.1141 32.0863 17.1872 33.7849 13.8589 33.8855H13.8436C13.7091 33.8921 13.5505 33.8953 13.3908 33.8953C11.4986 33.8953 9.73 33.3681 8.22281 32.4527L8.26656 32.4778C5.52344 30.8274 3.63125 28.0033 3.28125 24.7188L3.27687 24.6739C3.24953 23.9903 3.23641 23.3067 3.26375 22.6374C3.79969 17.4103 8.17906 13.3667 13.5023 13.3667C14.1006 13.3667 14.6869 13.4181 15.2567 13.5155L15.1955 13.5067C15.2228 15.5291 15.1408 17.5525 15.1408 19.5749C14.6781 19.4075 14.1444 19.3102 13.5877 19.3102C11.5445 19.3102 9.80656 20.6161 9.16344 22.4394L9.15359 22.4722C9.00813 22.9392 8.92391 23.4763 8.92391 24.0319C8.92391 24.2572 8.93812 24.4803 8.96437 24.6991L8.96219 24.6728C9.32531 26.9106 11.2438 28.5994 13.557 28.5994C13.6238 28.5994 13.6894 28.5983 13.755 28.595H13.7452C15.3453 28.5469 16.7344 27.6861 17.5197 26.4141L17.5306 26.3944C17.8227 25.9875 18.0228 25.4953 18.0895 24.9605L18.0906 24.9452C18.2273 22.4985 18.1727 20.066 18.1858 17.6192C18.1989 12.1111 18.1727 6.61611 18.2131 1.12221L18.2175 1.12549Z" fill="black"/>
</svg>
