<svg width="42" height="42" viewBox="0 0 42 42" fill="none" xmlns="http://www.w3.org/2000/svg">
<g clip-path="url(#clip0_162_168)">
<path fill-rule="evenodd" clip-rule="evenodd" d="M20.9998 21C16.3441 21 12.5599 17.2326 12.5599 12.6C12.5599 7.96737 16.3441 4.19997 20.9998 4.19997C25.6555 4.19997 29.4397 7.96737 29.4397 12.6C29.4397 17.2326 25.6555 21 20.9998 21ZM28.9294 22.4132C30.6645 21.0316 32.0026 19.2149 32.8075 17.1481C33.6124 15.0813 33.8553 12.8381 33.5116 10.6469C32.6779 5.13856 28.0747 0.730751 22.516 0.0881514C14.8468 -0.800149 8.341 5.14287 8.341 12.6C8.341 16.569 10.189 20.1053 13.0702 22.4132C5.989 25.0613 0.818798 31.2794 0.00819821 39.671C-0.0201435 39.9654 0.0132466 40.2625 0.106219 40.5431C0.199192 40.8238 0.349709 41.082 0.548146 41.3012C0.746584 41.5204 0.988572 41.6956 1.25865 41.8159C1.52872 41.9362 1.82094 41.999 2.11661 42C2.63488 42.0041 3.136 41.8147 3.52176 41.4686C3.90752 41.1224 4.15009 40.6446 4.2019 40.1289C5.0482 30.7566 12.2575 25.2 20.9998 25.2C29.7421 25.2 36.9514 30.7566 37.7977 40.1289C37.8495 40.6446 38.0921 41.1224 38.4778 41.4686C38.8636 41.8147 39.3647 42.0041 39.883 42C41.1346 42 42.109 40.9121 41.9893 39.671C41.1808 31.2794 36.0106 25.0613 28.9273 22.4132" fill="black"/>
</g>
<defs>
<clipPath id="clip0_162_168">
<rect width="42" height="42" fill="white"/>
</clipPath>
</defs>
</svg>
