<svg width="35" height="35" viewBox="0 0 35 35" fill="none" xmlns="http://www.w3.org/2000/svg">
<path fill-rule="evenodd" clip-rule="evenodd" d="M33.7046 6.55437C34.1682 4.29429 31.9483 2.41611 29.7962 3.24761L3.41614 13.4399C1.01284 14.3685 0.905751 17.7292 3.24505 18.8088L8.98989 21.4603L11.7228 31.0254C11.8648 31.5222 12.259 31.9069 12.7592 32.0366C13.2594 32.1661 13.7908 32.0214 14.1562 31.6559L18.366 27.4462L24.263 31.869C25.9748 33.1528 28.4403 32.2177 28.8702 30.1216L33.7046 6.55437ZM4.46731 16.1606L30.8474 5.96828L26.013 29.5357L19.1042 24.3539C18.5236 23.9185 17.7112 23.9762 17.198 24.4894L15.3949 26.2925L15.9367 23.313L26.552 12.6977C27.0687 12.181 27.1232 11.3619 26.6798 10.7813C26.2363 10.2006 25.4317 10.0378 24.7974 10.4003L10.1372 18.7774L4.46731 16.1606ZM11.9247 21.1153L12.809 24.2104L13.1485 22.343C13.2016 22.0512 13.3424 21.7824 13.5522 21.5727L16.7895 18.3355L11.9247 21.1153Z" fill="#0F0F0F"/>
</svg>
