<svg width="45" height="42" viewBox="0 0 45 42" fill="none" xmlns="http://www.w3.org/2000/svg">
<path d="M43.43 9.75C43.0412 9.07639 42.4845 8.51505 41.8141 8.12071C41.1438 7.72638 40.3826 7.51252 39.605 7.5H10.805L9.5 2.415C9.36815 1.92414 9.07399 1.49237 8.66542 1.19004C8.25686 0.8877 7.75797 0.7326 7.25 0.75H2.75C2.15326 0.75 1.58097 0.987053 1.15901 1.40901C0.737053 1.83097 0.5 2.40326 0.5 3C0.5 3.59674 0.737053 4.16903 1.15901 4.59099C1.58097 5.01295 2.15326 5.25 2.75 5.25H5.54L11.75 28.335C11.8819 28.8259 12.176 29.2576 12.5846 29.56C12.9931 29.8623 13.492 30.0174 14 30H34.25C34.6655 29.9987 35.0725 29.8825 35.426 29.664C35.7795 29.4456 36.0655 29.1336 36.2525 28.7625L43.6325 14.0025C43.9524 13.332 44.1013 12.5928 44.0659 11.8508C44.0306 11.1088 43.8121 10.387 43.43 9.75ZM32.855 25.5H15.71L12.0425 12H39.605L32.855 25.5Z" fill="black"/>
<path d="M12.875 41.25C14.739 41.25 16.25 39.739 16.25 37.875C16.25 36.011 14.739 34.5 12.875 34.5C11.011 34.5 9.5 36.011 9.5 37.875C9.5 39.739 11.011 41.25 12.875 41.25Z" fill="black"/>
<path d="M35.375 41.25C37.239 41.25 38.75 39.739 38.75 37.875C38.75 36.011 37.239 34.5 35.375 34.5C33.511 34.5 32 36.011 32 37.875C32 39.739 33.511 41.25 35.375 41.25Z" fill="black"/>
</svg>
